<?xml version="1.0" standalone="no"?>
<!DOCTYPE svg PUBLIC "-//W3C//DTD SVG 20010904//EN"
 "http://www.w3.org/TR/2001/REC-SVG-20010904/DTD/svg10.dtd">
<svg version="1.0" xmlns="http://www.w3.org/2000/svg"
 width="197.000000pt" height="197.000000pt" viewBox="0 0 197.000000 197.000000"
 preserveAspectRatio="xMidYMid meet">
<metadata>
Created by potrace 1.14, written by Peter Selinger 2001-2017
</metadata>
<g transform="translate(0.000000,197.000000) scale(0.100000,-0.100000)"
fill="#000000" stroke="none">
<path d="M426 1317 c-38 -82 -41 -92 -27 -83 14 9 72 138 68 150 -3 6 -21 -24
-41 -67z"/>
<path d="M200 1367 c0 -27 31 -117 40 -117 13 0 13 3 -6 66 -15 51 -34 80 -34
51z"/>
<path d="M319 1318 c0 -7 -2 -23 -3 -36 -2 -13 1 -25 6 -28 4 -3 8 3 9 13 0
10 2 28 5 41 2 12 -1 22 -6 22 -6 0 -10 -6 -11 -12z"/>
<path d="M117 1273 c-7 -10 32 -63 46 -63 14 0 7 19 -16 46 -14 16 -26 23 -30
17z"/>
<path d="M265 1231 c-130 -25 -188 -178 -116 -305 26 -45 30 -63 35 -161 l5
-110 43 -6 c29 -4 34 -6 15 -7 -24 -2 -26 -4 -17 -22 12 -23 59 -27 78 -8 18
18 15 26 -10 31 -14 3 -9 5 15 6 28 1 37 5 38 19 0 9 2 29 4 45 l4 27 -69 0
c-38 0 -72 4 -75 10 -3 5 -8 41 -10 79 -3 56 -10 79 -32 112 -22 34 -28 54
-28 99 1 150 166 221 267 115 18 -19 36 -35 40 -35 16 0 7 26 -17 53 -45 47
-109 70 -170 58z"/>
<path d="M485 1210 c-16 -16 -25 -30 -19 -30 12 0 25 10 48 38 28 33 4 27 -29
-8z"/>
<path d="M30 1186 c0 -14 69 -50 79 -41 7 8 -37 42 -61 49 -10 2 -18 -1 -18
-8z"/>
<path d="M328 1133 c-4 -7 -3 -360 1 -372 0 -2 7 2 15 8 10 8 16 9 21 1 11
-18 80 -12 99 9 19 20 35 109 29 157 -11 89 -44 121 -105 103 -18 -5 -33 -9
-33 -9 0 0 0 23 0 52 0 30 -5 53 -12 55 -6 2 -13 0 -15 -4z m116 -133 c6 -6
12 -44 14 -85 5 -87 -12 -125 -53 -125 -33 0 -47 35 -48 117 0 74 20 114 55
108 12 -3 26 -9 32 -15z"/>
<path d="M890 1074 c0 -19 4 -25 18 -22 24 5 25 48 1 48 -14 0 -19 -7 -19 -26z"/>
<path d="M35 1060 c3 -5 15 -10 25 -10 10 0 22 5 25 10 4 6 -7 10 -25 10 -18
0 -29 -4 -25 -10z"/>
<path d="M557 1038 c-28 -15 -44 -59 -46 -126 -3 -72 13 -128 39 -142 49 -26
103 1 115 58 9 43 -15 43 -35 -1 -16 -35 -50 -47 -68 -24 -7 8 -15 33 -18 56
l-6 41 67 0 68 0 -5 51 c-7 74 -60 116 -111 87z m64 -35 c4 -5 10 -23 12 -40
5 -33 5 -33 -38 -33 -24 0 -46 4 -50 10 -3 5 1 25 9 44 12 28 19 34 37 31 12
-3 26 -8 30 -12z"/>
<path d="M732 1038 c-31 -15 -45 -71 -41 -161 3 -56 9 -81 23 -96 21 -23 65
-28 96 -11 17 9 18 7 14 -18 -9 -51 -61 -69 -88 -31 -20 29 -52 19 -36 -11 15
-28 55 -42 96 -34 53 10 64 46 64 218 l0 146 -27 -1 c-16 0 -39 2 -53 4 -14 3
-35 1 -48 -5z m74 -40 c21 -22 24 -151 5 -186 -17 -31 -61 -27 -78 8 -24 47
-12 172 18 191 18 11 39 6 55 -13z"/>
<path d="M1012 1034 c-12 -8 -22 -11 -22 -5 0 6 -8 11 -17 11 -16 0 -18 -12
-16 -132 2 -161 0 -149 18 -142 12 5 15 27 15 115 0 106 1 109 26 126 48 31
58 12 64 -122 3 -82 9 -120 18 -123 13 -4 13 -7 15 142 2 76 -2 104 -13 118
-20 25 -61 31 -88 12z"/>
<path d="M1149 1021 c-4 -121 -3 -244 1 -250 4 -6 30 -7 58 -2 5 1 8 176 3
263 -1 12 -10 16 -31 16 -25 -1 -30 -5 -31 -27z"/>
<path d="M1250 904 l0 -142 53 3 c103 5 109 13 111 140 2 121 -10 137 -111
140 l-53 2 0 -143z m96 9 c1 -45 -2 -87 -6 -93 -17 -27 -25 2 -24 87 2 103 1
96 17 91 8 -3 12 -31 13 -85z"/>
<path d="M1450 904 l0 -141 63 1 c45 0 64 5 68 16 9 22 1 30 -32 30 -16 0 -29
3 -30 8 0 4 -2 24 -3 44 -1 36 0 38 29 35 24 -2 31 2 33 21 2 15 -2 22 -15 23
-51 3 -50 3 -44 49 0 6 14 10 30 10 29 0 45 18 33 36 -4 5 -35 10 -69 10 l-63
0 0 -142z"/>
<path d="M1655 1041 c-2 -4 -6 -26 -10 -49 -3 -24 -13 -80 -21 -125 -18 -106
-19 -104 14 -102 23 1 27 6 30 33 2 23 8 32 22 32 14 0 20 -9 22 -32 2 -28 7
-33 30 -35 15 -1 29 1 31 5 3 4 1 36 -4 72 -5 36 -11 94 -15 130 -4 36 -8 67
-10 69 -6 7 -84 8 -89 2z m45 -136 c0 -14 -4 -25 -9 -25 -5 0 -8 11 -7 25 1
33 16 33 16 0z"/>
<path d="M1820 1030 c-31 -31 -27 -85 9 -121 31 -31 30 -37 -6 -34 -21 1 -23
-3 -23 -41 0 -51 25 -74 81 -74 45 0 77 25 82 65 6 40 -6 61 -61 113 -33 31
-43 45 -35 53 16 16 33 2 33 -27 0 -20 5 -24 29 -24 39 0 46 21 28 76 -13 38
-104 47 -137 14z m77 -201 c2 -15 -2 -20 -14 -17 -15 3 -20 20 -14 55 2 14 25
-17 28 -38z"/>
<path d="M890 906 c0 -124 7 -162 27 -142 5 4 8 216 4 264 -1 6 -8 12 -16 12
-13 0 -15 -22 -15 -134z"/>
<path d="M48 963 c-26 -9 -45 -20 -42 -24 3 -5 21 -2 40 6 19 8 38 14 41 14 4
0 9 4 11 10 4 13 8 14 -50 -6z"/>
<path d="M105 870 c-16 -16 -24 -30 -19 -30 6 0 23 14 39 30 16 17 24 30 19
30 -6 0 -23 -13 -39 -30z"/>
</g>
</svg>
